#!OML:ASF E:/inclinewalkrobotboard/Project1/Captureday1/Session1/subject1.ASF
:FULLY-SPECIFIED
:DEGREES
1
root 0 0 0 31.67248644360223 -42.28799350720902 0.2764266928033816
lowerback -16.55680393730496 2.870540474059301 -8.33269549948233
upperback -10.120451869845521 3.89491483285655 -2.237453328956723
thorax -2.147508466853685 2.47082622627632 2.572645432541313
lowerneck -12.375344674474608 2.823182468825605 4.916724617001628
upperneck 36.295416103476356 1.2794953142875718 2.5592222404028964
head 14.462304706620706 1.4419935820012715 0.5463716939746479
rclavicle -1.9599870944980794E-16 4.8044376609206836E-15
rhumerus -41.14982862676556 20.59216087793031 -75.70388004091976
rradius 34.559791702532614
rwrist -30.825827880677323
rhand 22.04392568941819 0.5925294229753924
rfingers 7.125020000000005
rthumb 46.44136496561603 -21.813837558968547
lclavicle 8.553208150503312E-16 3.265248620382777E-15
lhumerus -73.47454598913424 -37.16042523311872 111.7963220456813
lradius 55.138699596342136
lwrist 31.729112073251507
lhand 24.66295505885262 20.681613079126635
lfingers 7.125019999999988
lthumb 48.739249028634845 41.8165512872168
rfemur -39.11319791059735 24.87943938605119 39.28470645448442
rtibia 49.48955345379121
rfoot 19.560646910019152 -28.389096408769653
rtoes 21.956915906310538
lfemur -38.265825136652296 1.0133601947095805 -25.474921604214583
ltibia 27.999056445607554
lfoot -57.99798693081014 24.491652299686372
ltoes 29.37280876831867
2
root 0 0 0 31.946833247912437 -42.45958063569698 1.2232862455831306
lowerback -17.071682169492053 2.7320952450713047 -9.238677543248203
upperback -10.442949214669639 3.6565384809205 -2.2972378489904233
thorax -2.2398570700857405 2.421417717112491 3.0717609269860198
lowerneck -12.255097468914869 2.944088131679771 4.863865746676048
upperneck 35.97846221805027 1.4613102319483764 2.754249170898083
head 14.307725567211966 1.527854832056338 0.6289353090176
rclavicle -1.621222947067797E-16 3.4094373625934087E-15
rhumerus -43.721907403574235 20.68283613390325 -74.58963243636963
rradius 32.76699322722525
rwrist -28.095390519395863
rhand 23.175870912801944 -0.10304454653102901
rfingers 7.125020000000006
rthumb 47.53058779098039 -22.337515266185925
lclavicle 2.0160413954777934E-15 2.6966875752641577E-15
lhumerus -74.64571929723344 -38.51626496951949 110.92101171359984
lradius 55.93325056199116
lwrist 31.770954986908457
lhand 24.849054033074516 20.73713133522929
lfingers 7.125019999999988
lthumb 48.903838672803765 41.79278152342059
rfemur -43.077467858259055 28.220950307319868 41.21994406003887
rtibia 48.70186342230218
rfoot 20.837744646845387 -30.821983910806686
rtoes 25.42360881537997
lfemur -35.788545164751866 -0.6278686877174842 -22.62833875190787
ltibia 25.003115665858676
lfoot -66.6721736650063 24.65060614407583
ltoes 32.696894433194686
3
root 0 0 0 32.385644888113795 -42.045780220968524 1.7047911184599815
lowerback -17.39433010149876 2.5377516563071296 -9.892538912809917
upperback -10.67317452628948 3.3421918361139396 -2.2522444858284616
thorax -2.306400152321938 2.3033964238153715 3.5355269485400385
lowerneck -12.224136779417185 2.955588949679239 4.730280764815813
upperneck 35.731229967054766 1.515729116966107 2.833761686256916
head 14.209427470996088 1.5416746569715956 0.6755471417462351
rclavicle -7.766354025536019E-16 3.0201737006495083E-15
rhumerus -44.04259234939575 19.4352586542881 -72.9934074940954
rradius 30.484821702986054
rwrist -23.410566814716447
rhand 23.98134761449701 -0.9117299354916231
rfingers 7.125020000000007
rthumb 48.303177986284894 -23.063779133140798
lclavicle 2.5869707248215086E-15 2.9742171032182923E-15
lhumerus -74.32759937306956 -39.042215963054005 110.12629189153088
lradius 56.267871591596105
lwrist 31.731202061723344
lhand 24.864232178175108 20.84571264838424
lfingers 7.125019999999988
lthumb 48.91284668154747 41.87985106507742
rfemur -46.129069279496875 31.02303262221315 42.69332168272861
rtibia 46.55596528542995
rfoot 20.92428494516345 -32.72299551699172
rtoes 28.674233495167122
lfemur -33.86337785367937 -1.4621757717720651 -20.92665367080727
ltibia 24.02318260113252
lfoot -71.21825587839827 24.166396916239506
ltoes 33.87051158689515
4
root 0 0 0 32.631615167417664 -41.123680544713764 2.085896900543508
lowerback -17.58753734217917 2.340360648531875 -10.390991709748663
upperback -10.784139395547083 3.037258029448034 -2.1737032041479387
thorax -2.304829696310067 2.1773050718758657 3.9321047390325132
lowerneck -12.272948934814744 2.8515264537950165 4.549802604727324
upperneck 35.556178133186336 1.4332179209244533 2.782080564004949
head 14.153877720482523 1.4811159114628958 0.6763597978992664
rclavicle -1.4971824760287892E-15 2.5313501249692466E-15
rhumerus -41.594611591838415 16.71063920676844 -70.19118173717074
rradius 27.66918459438883
rwrist -16.199461663078807
rhand 24.735891278744642 -2.0703548133895495
rfingers 7.12502000000001
rthumb 49.022845427575255 -24.186533714536914
lclavicle 3.3821423295545525E-15 3.1425538473293673E-15
lhumerus -73.09376822479888 -39.0216702732805 109.45732284785231
lradius 56.285728406244424
lwrist 31.716322449341554
lhand 24.81357480549044 21.027967705284123
lfingers 7.125019999999988
lthumb 48.863147422034956 42.07239366931929
rfemur -47.956053844323534 33.115265405200034 43.672858943944064
rtibia 43.4754539632614
rfoot 20.22277137720947 -33.91055658744596
rtoes 31.101225285118836
lfemur -31.89504962472205 -2.112379229050358 -19.966671520555373
ltibia 23.944189872879843
lfoot -73.43017931766956 23.277489174812693
ltoes 33.6035685994424
5
root 0 0 0 32.758278302871666 -39.84046356461989 2.3872782679905225
lowerback -17.718486822646614 2.158904616414061 -10.764055416106851
upperback -10.826380273107521 2.7662884427299814 -2.0733214068621844
thorax -2.257335876702739 2.059569427121195 4.269811511329289
lowerneck -12.352643644988937 2.6752471178087065 4.349695340839432
upperneck 35.45414606112697 1.2655153016807754 2.6353066879654947
head 14.131121805290897 1.374430972607539 0.643006214232932
rclavicle -2.2738515972861885E-15 2.146278756516649E-15
rhumerus -35.77009570958164 12.042146992364245 -64.91431055751319
rradius 24.17444737487937
rwrist -5.313524524853705
rhand 25.69749170577595 -3.818629891494801
rfingers 7.125020000000013
rthumb 49.93627852740818 -25.909065003834126
lclavicle 4.444798511853352E-15 3.258300585894371E-15
lhumerus -70.99498426898718 -38.570002256289676 108.75272322856986
lradius 55.985947680602905
lwrist 31.71137720457439
lhand 24.77289291227162 21.371501279812705
lfingers 7.125019999999988
lthumb 48.825402015423904 42.446927854407754
rfemur -48.24535372733 33.96757905836037 43.848031607957225
rtibia 40.336596103917415
rfoot 19.09062453669194 -34.385468313902315
rtoes 32.51720936464148
lfemur -29.588755568065576 -2.873655109925311 -19.326858354562155
ltibia 24.161703848926823
lfoot -74.33488549062419 22.024435318459908
ltoes 32.31671755786472
6
root 0 0 0 33.29401216443875 -37.09536718653 2.4230057226262005
lowerback -17.94348404211657 1.9195553749359702 -11.11528731360624
upperback -10.94154534973964 2.416627564625728 -1.8474191848589876
thorax -2.201691091637585 1.8928158243047895 4.734106620872303
lowerneck -12.353530143440976 2.402984207424451 4.073886793765696
upperneck 35.501960296085876 1.0194843135733398 2.277692562223087
head 14.157314768172832 1.209577374209261 0.5450266231637197
rclavicle -3.665876973859508E-15 1.9581811362353305E-15
rhumerus -20.390957267824383 -0.11014150397535616 -49.141081351052
rradius 17.487688098381845
rwrist 19.270795992312742
rhand 27.890718475830692 -7.882991915663029
rfingers 7.125020000000014
rthumb 52.0253947390006 -29.92973636279695
lclavicle 6.943668161457664E-15 3.5004456508898267E-15
lhumerus -65.13714815336246 -36.83743805820039 106.7087179868635
lradius 54.638822411461135
lwrist 31.43794653304343
lhand 24.891231008381563 22.477683166400876
lfingers 7.12501999999999
lthumb 48.9440956401519 43.639221881837436
rfemur -47.37157529319947 33.2901659312825 42.72889287595791
rtibia 37.14461633163075
rfoot 16.426570762998836 -33.79180462744322
rtoes 34.137761177666164
lfemur -25.255494643337613 -4.313792064976511 -18.48430058783483
ltibia 24.50382373715651
lfoot -74.04163586435223 19.4293220424299
ltoes 28.89198987988084
